# xmcd
#
# Track frame offsets: 
#        150
#        21706
#        39091
#        56898
#        75227
#        94079
#        116503
#        138164
#        155738
#        177333
#        194819
#        213649
#        230180
#
# Disc length: 3332 seconds
#
# Revision: 1
# Processed by: cddbd v1.5.2PL0 Copyright (c) Steve Scherf et al.
# Submitted via: ExactAudioCopy v1.0b4
#
DISCID=bb0d020d
DTITLE=The Nick Moss Band featuring Dennis Gruenling - The High Cost O
DTITLE=f Low Living
DYEAR=2018
DGENRE=Blues
TTITLE0=Crazy Mixed Up Baby
TTITLE1=Get Right Before You Get Left
TTITLE2=No Sense
TTITLE3=The High Cost Of Low Living
TTITLE4=Count On Me
TTITLE5=Note On The Door
TTITLE6=Get Your Hands Out Of My Pockets
TTITLE7=Tight Grip On Your Leash
TTITLE8=He Walked With Giants (Ode to Barrelhouse Chuck)
TTITLE9=A Pledge To You
TTITLE10=Lesson To Learn
TTITLE11=All Night Diner
TTITLE12=Rambling On My Mind
EXTD=
EXTT0=
EXTT1=
EXTT2=
EXTT3=
EXTT4=
EXTT5=
EXTT6=
EXTT7=
EXTT8=
EXTT9=
EXTT10=
EXTT11=
EXTT12=
PLAYORDER=
